<svg width="45" height="40" viewBox="0 0 45 40" fill="none" xmlns="http://www.w3.org/2000/svg">
<path d="M0 1.875C0 0.835938 0.835938 0 1.875 0H5.42969C7.14844 0 8.67188 1 9.38281 2.5H41.4922C43.5469 2.5 45.0469 4.45312 44.5078 6.4375L41.3047 18.3359C40.6406 20.7891 38.4141 22.5 35.875 22.5H13.3359L13.7578 24.7266C13.9297 25.6094 14.7031 26.25 15.6016 26.25H38.125C39.1641 26.25 40 27.0859 40 28.125C40 29.1641 39.1641 30 38.125 30H15.6016C12.8984 30 10.5781 28.0781 10.0781 25.4297L6.04688 4.25781C5.99219 3.96094 5.73438 3.75 5.42969 3.75H1.875C0.835938 3.75 0 2.91406 0 1.875ZM10 36.25C10 35.7575 10.097 35.2699 10.2855 34.8149C10.4739 34.36 10.7501 33.9466 11.0983 33.5984C11.4466 33.2501 11.86 32.9739 12.3149 32.7854C12.7699 32.597 13.2575 32.5 13.75 32.5C14.2425 32.5 14.7301 32.597 15.1851 32.7854C15.64 32.9739 16.0534 33.2501 16.4017 33.5984C16.7499 33.9466 17.0261 34.36 17.2145 34.8149C17.403 35.2699 17.5 35.7575 17.5 36.25C17.5 36.7425 17.403 37.2301 17.2145 37.6851C17.0261 38.14 16.7499 38.5534 16.4017 38.9016C16.0534 39.2499 15.64 39.5261 15.1851 39.7146C14.7301 39.903 14.2425 40 13.75 40C13.2575 40 12.7699 39.903 12.3149 39.7146C11.86 39.5261 11.4466 39.2499 11.0983 38.9016C10.7501 38.5534 10.4739 38.14 10.2855 37.6851C10.097 37.2301 10 36.7425 10 36.25ZM36.25 32.5C37.2446 32.5 38.1984 32.8951 38.9016 33.5984C39.6049 34.3016 40 35.2554 40 36.25C40 37.2446 39.6049 38.1984 38.9016 38.9016C38.1984 39.6049 37.2446 40 36.25 40C35.2554 40 34.3016 39.6049 33.5984 38.9016C32.8951 38.1984 32.5 37.2446 32.5 36.25C32.5 35.2554 32.8951 34.3016 33.5984 33.5984C34.3016 32.8951 35.2554 32.5 36.25 32.5Z" fill="#4B5563"/>
</svg>
