<svg width="38" height="60" viewBox="0 0 38 60" fill="none" xmlns="http://www.w3.org/2000/svg">
<path d="M11.2481 7.5C11.2481 5.51088 12.0383 3.60322 13.4448 2.1967C14.8513 0.790176 16.759 0 18.7481 0C20.7372 0 22.6449 0.790176 24.0514 2.1967C25.4579 3.60322 26.2481 5.51088 26.2481 7.5C26.2481 9.48912 25.4579 11.3968 24.0514 12.8033C22.6449 14.2098 20.7372 15 18.7481 15C16.759 15 14.8513 14.2098 13.4448 12.8033C12.0383 11.3968 11.2481 9.48912 11.2481 7.5ZM16.8731 45V56.25C16.8731 58.3242 15.1973 60 13.1231 60C11.0489 60 9.3731 58.3242 9.3731 56.25V33.7266L6.92388 37.6172C5.82232 39.375 3.50201 39.8906 1.75591 38.7891C0.00982091 37.6875 -0.529242 35.3789 0.572321 33.6328L5.2481 26.2148C8.16607 21.5625 13.2637 18.75 18.7481 18.75C24.2325 18.75 29.3301 21.5625 32.2481 26.2031L36.9239 33.6328C38.0254 35.3906 37.4981 37.6992 35.752 38.8008C34.0059 39.9023 31.6856 39.375 30.584 37.6289L28.1231 33.7266V56.25C28.1231 58.3242 26.4473 60 24.3731 60C22.2989 60 20.6231 58.3242 20.6231 56.25V45H16.8731Z" fill="#7C3AED"/>
</svg>
