<svg width="75" height="60" viewBox="0 0 75 60" fill="none" xmlns="http://www.w3.org/2000/svg">
<path d="M8.74353 43.7424C13.631 47.9735 21.4018 53.4119 28.2114 52.3805C28.9264 52.275 29.6296 52.0875 30.3211 51.853C29.2428 50.4114 28.2935 48.9932 27.4847 47.704C24.9179 43.6018 24.1092 38.8901 24.4491 34.3894C22.0347 34.8699 19.8546 35.9131 18.0379 37.3664C17.2761 37.9759 16.1275 37.5188 16.3033 36.546C17.0534 32.6196 20.1711 29.4081 24.2967 28.7752C24.6015 28.7283 24.9179 28.6932 25.2227 28.6815L27.4965 13.2923C27.7309 11.6749 28.4341 9.45971 30.4266 7.91259C32.6066 6.23655 36.3924 4.33781 42.5691 3.77523C42.4754 3.69318 42.3816 3.61114 42.2878 3.52909C39.9203 1.70068 33.8021 -1.34667 20.593 0.657551C7.38394 2.66177 2.40269 7.38517 0.668047 9.83477C-2.63792e-05 10.7724 -0.093791 11.9562 0.0702971 13.1048L2.90668 32.3617C3.55131 36.7335 5.4266 40.8709 8.74353 43.7541V43.7424ZM19.0225 18.004C19.5382 17.6407 20.2883 17.7696 20.4055 18.3908C20.4172 18.4494 20.4289 18.5197 20.4407 18.5783C20.8157 21.1334 19.0811 23.501 16.5612 23.8877C14.0412 24.2745 11.6971 22.5047 11.3221 19.9613C11.3103 19.9027 11.3103 19.8324 11.2986 19.7738C11.2283 19.1409 11.9081 18.7893 12.5058 18.9885C13.5607 19.3402 14.7093 19.4456 15.8696 19.2698C17.03 19.094 18.1083 18.6486 19.0108 18.004H19.0225ZM30.661 45.7115C34.1069 51.2084 39.9789 58.7096 46.7885 59.741C53.5982 60.7724 61.3807 55.3458 66.2564 51.1029C69.5733 48.2314 71.4486 44.094 72.0933 39.7105L74.9296 20.4536C75.0937 19.305 75 18.1212 74.3319 17.1836C72.5973 14.734 67.616 10.0106 54.4069 8.00636C41.1978 6.00214 35.0914 9.04949 32.7238 10.8779C31.8096 11.5811 31.376 12.6829 31.2119 13.8315L28.3755 33.0884C27.7309 37.4602 28.3286 41.9726 30.6727 45.7115H30.661ZM47.4097 27.5797C46.5072 26.9351 45.4407 26.4897 44.2686 26.3139C43.0966 26.1381 41.9479 26.2436 40.9048 26.5952C40.3071 26.7944 39.6273 26.4428 39.6976 25.8099C39.7093 25.7513 39.7093 25.681 39.721 25.6224C40.0961 23.0673 42.4402 21.3092 44.9601 21.696C47.4801 22.0828 49.2147 24.4503 48.8396 27.0054C48.8279 27.064 48.8162 27.1343 48.8045 27.1929C48.6873 27.8141 47.9372 27.9431 47.4214 27.5797H47.4097ZM63.3732 29.3964C63.256 30.0176 62.5058 30.1465 61.9901 29.7832C61.0876 29.1386 60.0211 28.6932 58.849 28.5174C57.677 28.3416 56.5283 28.447 55.4852 28.7987C54.8875 28.9979 54.2077 28.6463 54.278 28.0134C54.2897 27.9548 54.2897 27.8845 54.3014 27.8259C54.6765 25.2708 57.0206 23.5127 59.5405 23.8995C62.0605 24.2862 63.7951 26.6538 63.42 29.2089C63.4083 29.2675 63.3966 29.3378 63.3849 29.3964H63.3732ZM62.1191 41.0467C59.8218 46.2858 54.2897 49.5441 48.4294 48.6533C42.5691 47.7626 38.2208 43.004 37.5293 37.3195C37.4121 36.3467 38.5724 35.9013 39.3108 36.5343C42.112 38.9721 45.593 40.6716 49.5077 41.2576C53.4224 41.8437 57.255 41.2694 60.6305 39.7574C61.5213 39.3589 62.5058 40.1325 62.1073 41.035L62.1191 41.0467Z" fill="#D97706"/>
</svg>
