<svg width="43" height="43" viewBox="0 0 43 43" fill="none" xmlns="http://www.w3.org/2000/svg">
<path d="M21.5048 10.473C15.4037 10.473 10.4826 15.3941 10.4826 21.4952C10.4826 27.5963 15.4037 32.5174 21.5048 32.5174C27.6059 32.5174 32.527 27.5963 32.527 21.4952C32.527 15.3941 27.6059 10.473 21.5048 10.473ZM21.5048 28.6611C17.5621 28.6611 14.3389 25.4475 14.3389 21.4952C14.3389 17.5429 17.5525 14.3293 21.5048 14.3293C25.4571 14.3293 28.6707 17.5429 28.6707 21.4952C28.6707 25.4475 25.4475 28.6611 21.5048 28.6611ZM35.5487 10.0221C35.5487 11.4515 34.3976 12.593 32.9779 12.593C31.5485 12.593 30.407 11.4419 30.407 10.0221C30.407 8.6024 31.5581 7.45125 32.9779 7.45125C34.3976 7.45125 35.5487 8.6024 35.5487 10.0221ZM42.8489 12.6314C42.6858 9.18756 41.8992 6.13703 39.3763 3.6237C36.863 1.11037 33.8124 0.323759 30.3686 0.151088C26.8192 -0.0503625 16.1808 -0.0503625 12.6314 0.151088C9.19716 0.314166 6.14663 1.10078 3.6237 3.61411C1.10078 6.12744 0.323759 9.17797 0.151088 12.6218C-0.0503625 16.1712 -0.0503625 26.8096 0.151088 30.359C0.314166 33.8028 1.10078 36.8534 3.6237 39.3667C6.14663 41.88 9.18756 42.6666 12.6314 42.8393C16.1808 43.0408 26.8192 43.0408 30.3686 42.8393C33.8124 42.6762 36.863 41.8896 39.3763 39.3667C41.8896 36.8534 42.6762 33.8028 42.8489 30.359C43.0504 26.8096 43.0504 16.1808 42.8489 12.6314ZM38.2635 34.1674C37.5153 36.0476 36.0668 37.4961 34.177 38.2539C31.3471 39.3763 24.6321 39.1173 21.5048 39.1173C18.3775 39.1173 11.6529 39.3667 8.83263 38.2539C6.95243 37.5057 5.5039 36.0572 4.74607 34.1674C3.6237 31.3375 3.88271 24.6225 3.88271 21.4952C3.88271 18.3679 3.6333 11.6433 4.74607 8.82303C5.49431 6.94283 6.94283 5.49431 8.83263 4.73647C11.6625 3.61411 18.3775 3.87312 21.5048 3.87312C24.6321 3.87312 31.3567 3.6237 34.177 4.73647C36.0572 5.48472 37.5057 6.93324 38.2635 8.82303C39.3859 11.6529 39.1269 18.3679 39.1269 21.4952C39.1269 24.6225 39.3859 31.3471 38.2635 34.1674Z" fill="#9CA3AF"/>
</svg>
