<svg width="68" height="52" viewBox="0 0 68 52" fill="none" xmlns="http://www.w3.org/2000/svg">
<path d="M29.4667 51.8854C30.7417 52.334 32.1111 51.4014 32.1111 50.0556V5.50139C32.1111 5.00556 31.9222 4.50972 31.5208 4.20278C29.2069 2.36111 23.8944 0 17 0C11.0382 0 5.46597 1.57014 2.13681 2.84514C0.802778 3.36458 0 4.68681 0 6.11528V49.8312C0 51.2361 1.51111 52.216 2.84514 51.7792C6.56389 50.5396 12.4549 49.1111 17 49.1111C21.0021 49.1111 26.3264 50.7639 29.4667 51.8854ZM38.5333 51.8854C41.6736 50.7639 46.9979 49.1111 51 49.1111C55.5451 49.1111 61.4361 50.5396 65.1549 51.7792C66.4889 52.2278 68 51.2361 68 49.8312V6.11528C68 4.68681 67.1972 3.36458 65.8632 2.85694C62.534 1.57014 56.9618 0 51 0C44.1056 0 38.7931 2.36111 36.4792 4.20278C36.0896 4.50972 35.8889 5.00556 35.8889 5.50139V50.0556C35.8889 51.4014 37.2701 52.334 38.5333 51.8854Z" fill="#EA580C"/>
</svg>
