<svg width="76" height="53" viewBox="0 0 76 53" fill="none" xmlns="http://www.w3.org/2000/svg">
<path d="M37.8516 0C36.8935 0 35.9473 0.165592 35.0483 0.48495L1.87065 12.4668C0.746988 12.8807 0.0018206 13.9453 0.0018206 15.1399C0.0018206 16.3345 0.746988 17.3991 1.87065 17.813L8.71909 20.2851C6.77929 23.3367 5.67928 26.9443 5.67928 30.7411V34.0648C5.67928 37.4239 4.40185 40.8896 3.04163 43.6218C2.27281 45.1595 1.39753 46.6735 0.380318 48.0692C0.00182061 48.5778 -0.104632 49.2402 0.108273 49.8434C0.321178 50.4466 0.817956 50.8961 1.43301 51.0499L9.00296 52.9423C9.49974 53.0724 10.032 52.9778 10.4696 52.7058C10.9073 52.4337 11.2148 51.9843 11.3094 51.4757C12.3266 46.4133 11.818 41.8713 11.061 38.6186C10.6825 36.939 10.1739 35.2239 9.46426 33.6508V30.7411C9.46426 27.169 10.6707 23.798 12.7643 21.1012C14.2901 19.2679 16.2654 17.7894 18.5837 16.8786L37.1537 9.58072C38.1236 9.20222 39.2236 9.67534 39.6021 10.6452C39.9806 11.6151 39.5075 12.7152 38.5376 13.0936L19.9676 20.3916C18.5009 20.9711 17.2116 21.8582 16.1589 22.9464L35.0365 29.7594C35.9354 30.0787 36.8817 30.2443 37.8397 30.2443C38.7978 30.2443 39.7441 30.0787 40.643 29.7594L73.8325 17.813C74.9562 17.4109 75.7013 16.3345 75.7013 15.1399C75.7013 13.9453 74.9562 12.8807 73.8325 12.4668L40.6548 0.48495C39.7559 0.165592 38.8096 0 37.8516 0ZM15.1417 44.4735C15.1417 48.6488 25.3138 52.9897 37.8516 52.9897C50.3893 52.9897 60.5614 48.6488 60.5614 44.4735L58.7517 27.2755L41.9322 33.3551C40.6193 33.8282 39.2354 34.0648 37.8516 34.0648C36.4677 34.0648 35.072 33.8282 33.7709 33.3551L16.9514 27.2755L15.1417 44.4735Z" fill="#2563EB"/>
</svg>
