<svg width="75" height="45" viewBox="0 0 75 45" fill="none" xmlns="http://www.w3.org/2000/svg">
<path d="M0 7.5C0 3.36328 3.36328 0 7.5 0H30H35.625H37.5H67.5C71.6367 0 75 3.36328 75 7.5V37.5C75 41.6367 71.6367 45 67.5 45H37.5H35.625H30H7.5C3.36328 45 0 41.6367 0 37.5V7.5ZM37.5 7.5V37.5H67.5V7.5H37.5ZM20.8945 13.1133C20.5195 12.2695 19.6758 11.7188 18.75 11.7188C17.8242 11.7188 16.9805 12.2695 16.6055 13.1133L9.10547 29.9883C8.57812 31.1719 9.11719 32.5547 10.3008 33.082C11.4844 33.6094 12.8672 33.0703 13.3945 31.8867L14.4375 29.5312H23.0625L24.1055 31.8867C24.6328 33.0703 26.0156 33.5977 27.1992 33.082C28.3828 32.5664 28.9102 31.1719 28.3945 29.9883L20.8945 13.1133ZM18.75 19.8281L20.9766 24.8438H16.5234L18.75 19.8281ZM52.5 11.7188C53.7891 11.7188 54.8438 12.7734 54.8438 14.0625V14.5312H60H61.875C63.1641 14.5312 64.2188 15.5859 64.2188 16.875C64.2188 18.1641 63.1641 19.2188 61.875 19.2188H61.6406L61.4531 19.7461C60.4102 22.6055 58.8281 25.207 56.8125 27.4102C56.918 27.4805 57.0234 27.5391 57.1289 27.5977L59.3438 28.9219C60.457 29.5898 60.8086 31.0313 60.1523 32.1328C59.4961 33.2344 58.043 33.5977 56.9414 32.9414L54.7266 31.6172C54.1992 31.3008 53.6953 30.9727 53.1914 30.6211C51.9492 31.5 50.625 32.2617 49.207 32.8945L48.7852 33.082C47.6016 33.6094 46.2188 33.0703 45.6914 31.8867C45.1641 30.7031 45.7031 29.3203 46.8867 28.793L47.3086 28.6055C48.0586 28.2656 48.7852 27.8906 49.4766 27.457L48.0469 26.0273C47.1328 25.1133 47.1328 23.625 48.0469 22.7109C48.9609 21.7969 50.4492 21.7969 51.3633 22.7109L53.0742 24.4219L53.1328 24.4805C54.5859 22.9453 55.7695 21.1641 56.625 19.207H52.5H44.0625C42.7734 19.207 41.7188 18.1523 41.7188 16.8633C41.7188 15.5742 42.7734 14.5195 44.0625 14.5195H50.1562V14.0508C50.1562 12.7617 51.2109 11.707 52.5 11.707V11.7188Z" fill="#DC2626"/>
</svg>
