<svg width="44" height="43" viewBox="0 0 44 43" fill="none" xmlns="http://www.w3.org/2000/svg">
<path d="M3.08173 18.2096H2.27574C1.0146 18.2096 0 17.195 0 15.9338V3.79654C0 2.87676 0.549971 2.04233 1.40337 1.69148C2.25678 1.34064 3.23345 1.53028 3.88772 2.18456L7.83234 6.12918C16.1388 -2.07297 29.5183 -2.04452 37.7773 6.224C46.0743 14.521 46.0743 27.9668 37.7773 36.2638C29.4803 44.5607 16.0345 44.5607 7.73752 36.2638C6.55224 35.0785 6.55224 33.1536 7.73752 31.9683C8.9228 30.783 10.8477 30.783 12.033 31.9683C17.9594 37.8947 27.5649 37.8947 33.4913 31.9683C39.4177 26.0419 39.4177 16.4364 33.4913 10.51C27.5934 4.61202 18.0637 4.58357 12.1278 10.4152L16.025 14.3218C16.6793 14.9761 16.8689 15.9528 16.5181 16.8062C16.1672 17.6596 15.3328 18.2096 14.413 18.2096H3.08173Z" fill="#EA580C"/>
</svg>
