<svg width="32" height="33" viewBox="0 0 32 33" fill="none" xmlns="http://www.w3.org/2000/svg">
<path d="M26.0013 13.0006C26.0013 15.8695 25.07 18.5197 23.5012 20.6698L31.4141 28.5889C32.1953 29.3702 32.1953 30.639 31.4141 31.4203C30.6328 32.2016 29.364 32.2016 28.5827 31.4203L20.6698 23.5012C18.5197 25.0762 15.8695 26.0013 13.0006 26.0013C5.81904 26.0013 0 20.1823 0 13.0006C0 5.81904 5.81904 0 13.0006 0C20.1823 0 26.0013 5.81904 26.0013 13.0006ZM13.0006 22.0011C14.1826 22.0011 15.353 21.7683 16.445 21.316C17.537 20.8637 18.5292 20.2007 19.3649 19.3649C20.2007 18.5292 20.8637 17.537 21.316 16.445C21.7683 15.353 22.0011 14.1826 22.0011 13.0006C22.0011 11.8187 21.7683 10.6483 21.316 9.55632C20.8637 8.46434 20.2007 7.47214 19.3649 6.63637C18.5292 5.8006 17.537 5.13763 16.445 4.68532C15.353 4.233 14.1826 4.0002 13.0006 4.0002C11.8187 4.0002 10.6483 4.233 9.55632 4.68532C8.46434 5.13763 7.47214 5.8006 6.63637 6.63637C5.8006 7.47214 5.13763 8.46434 4.68532 9.55632C4.233 10.6483 4.0002 11.8187 4.0002 13.0006C4.0002 14.1826 4.233 15.353 4.68532 16.445C5.13763 17.537 5.8006 18.5292 6.63637 19.3649C7.47214 20.2007 8.46434 20.8637 9.55632 21.316C10.6483 21.7683 11.8187 22.0011 13.0006 22.0011Z" fill="#9CA3AF"/>
</svg>
