<svg width="60" height="48" viewBox="0 0 60 48" fill="none" xmlns="http://www.w3.org/2000/svg">
<path d="M4.5 0C2.01562 0 0 2.01562 0 4.5V34.5C0 36.9844 2.01562 39 4.5 39H6C6 43.9688 10.0312 48 15 48C19.9688 48 24 43.9688 24 39H36C36 43.9688 40.0312 48 45 48C49.9688 48 54 43.9688 54 39H57C58.6594 39 60 37.6594 60 36C60 34.3406 58.6594 33 57 33V27V24V22.2469C57 20.6531 56.3719 19.125 55.2469 18L48 10.7531C46.875 9.62812 45.3469 9 43.7531 9H39V4.5C39 2.01562 36.9844 0 34.5 0H4.5ZM39 15H43.7531L51 22.2469V24H39V15ZM10.5 39C10.5 37.8065 10.9741 36.6619 11.818 35.818C12.6619 34.9741 13.8065 34.5 15 34.5C16.1935 34.5 17.3381 34.9741 18.182 35.818C19.0259 36.6619 19.5 37.8065 19.5 39C19.5 40.1935 19.0259 41.3381 18.182 42.182C17.3381 43.0259 16.1935 43.5 15 43.5C13.8065 43.5 12.6619 43.0259 11.818 42.182C10.9741 41.3381 10.5 40.1935 10.5 39ZM45 34.5C46.1935 34.5 47.3381 34.9741 48.182 35.818C49.0259 36.6619 49.5 37.8065 49.5 39C49.5 40.1935 49.0259 41.3381 48.182 42.182C47.3381 43.0259 46.1935 43.5 45 43.5C43.8065 43.5 42.6619 43.0259 41.818 42.182C40.9741 41.3381 40.5 40.1935 40.5 39C40.5 37.8065 40.9741 36.6619 41.818 35.818C42.6619 34.9741 43.8065 34.5 45 34.5Z" fill="#EA580C"/>
</svg>
