<svg width="34" height="33" viewBox="0 0 34 33" fill="none" xmlns="http://www.w3.org/2000/svg">
<path d="M18.8498 1.15897C18.5085 0.450711 17.7874 0 16.9954 0C16.2035 0 15.4888 0.450711 15.1411 1.15897L11.001 9.67741L1.75497 11.0424C0.982321 11.1583 0.338448 11.6992 0.100215 12.4396C-0.138018 13.1801 0.055144 13.9978 0.608875 14.5451L7.31803 21.1834L5.7341 30.5646C5.60533 31.3373 5.92726 32.1228 6.5647 32.58C7.20213 33.0371 8.0456 33.0951 8.74099 32.728L17.0019 28.3175L25.2628 32.728C25.9581 33.0951 26.8016 33.0435 27.439 32.58C28.0765 32.1164 28.3984 31.3373 28.2696 30.5646L26.6793 21.1834L33.3884 14.5451C33.9422 13.9978 34.1418 13.1801 33.8971 12.4396C33.6524 11.6992 33.015 11.1583 32.2423 11.0424L22.9899 9.67741L18.8498 1.15897Z" fill="#FB923C"/>
</svg>
