<svg width="48" height="39" viewBox="0 0 48 39" fill="none" xmlns="http://www.w3.org/2000/svg">
<path d="M43.0662 9.71574C43.0966 10.1421 43.0966 10.5686 43.0966 10.995C43.0966 24 33.1982 38.9849 15.1067 38.9849C9.53302 38.9849 4.35537 37.3706 0 34.5687C0.79191 34.66 1.55326 34.6905 2.37564 34.6905C6.97457 34.6905 11.2081 33.1372 14.5889 30.4875C10.264 30.3961 6.6396 27.5636 5.39084 23.6651C6.00003 23.7564 6.60913 23.8173 7.24879 23.8173C8.13201 23.8173 9.01533 23.6954 9.83761 23.4823C5.33 22.5686 1.94917 18.6092 1.94917 13.8274V13.7057C3.25877 14.4366 4.78174 14.8935 6.39584 14.9543C3.74608 13.1878 2.0101 10.1726 2.0101 6.76138C2.0101 4.93399 2.49733 3.25886 3.35017 1.79692C8.19285 7.76648 15.4721 11.6649 23.6345 12.0914C23.4822 11.3604 23.3908 10.5991 23.3908 9.83761C23.3908 4.41621 27.7767 0 33.2284 0C36.0609 0 38.6193 1.18782 40.4163 3.10661C42.6396 2.68023 44.7716 1.85785 46.66 0.730973C45.9289 3.0153 44.3757 4.93409 42.3351 6.15228C44.3148 5.93919 46.2336 5.39084 48.0001 4.62949C46.6602 6.57866 44.9849 8.31464 43.0662 9.71574Z" fill="#9CA3AF"/>
</svg>
