<svg width="35" height="40" viewBox="0 0 35 40" fill="none" xmlns="http://www.w3.org/2000/svg">
<path d="M17.5 20C20.1522 20 22.6957 18.9464 24.5711 17.0711C26.4464 15.1957 27.5 12.6522 27.5 10C27.5 7.34784 26.4464 4.8043 24.5711 2.92893C22.6957 1.05357 20.1522 0 17.5 0C14.8478 0 12.3043 1.05357 10.4289 2.92893C8.55357 4.8043 7.5 7.34784 7.5 10C7.5 12.6522 8.55357 15.1957 10.4289 17.0711C12.3043 18.9464 14.8478 20 17.5 20ZM13.9297 23.75C6.23438 23.75 0 29.9844 0 37.6797C0 38.9609 1.03906 40 2.32031 40H32.6797C33.9609 40 35 38.9609 35 37.6797C35 29.9844 28.7656 23.75 21.0703 23.75H13.9297Z" fill="#4B5563"/>
</svg>
